<svg xmlns="http://www.w3.org/2000/svg" viewBox="0 0 100 100">
  <!-- Body -->
  <ellipse cx="50" cy="72" rx="24" ry="26" fill="#3ecf6e"/>
  <!-- Belly -->
  <ellipse cx="50" cy="78" rx="14" ry="17" fill="#a8f0c0"/>
  <!-- Tail -->
  <path d="M72 82 Q90 90 88 100 Q78 92 70 90 Z" fill="#3ecf6e"/>
  <!-- Spikes -->
  <polygon points="36,50 32,38 42,47" fill="#00cc55"/>
  <polygon points="46,46 43,33 53,44" fill="#00cc55"/>
  <polygon points="57,46 55,33 65,44" fill="#00cc55"/>
  <!-- Neck -->
  <ellipse cx="50" cy="55" rx="13" ry="10" fill="#3ecf6e"/>
  <!-- Head -->
  <ellipse cx="50" cy="38" rx="20" ry="18" fill="#3ecf6e"/>
  <!-- Snout -->
  <ellipse cx="50" cy="46" rx="11" ry="7" fill="#4ddf80"/>
  <!-- Smile -->
  <path d="M42 47 Q50 53 58 47" fill="#cc3355"/>
  <path d="M42 47 Q50 50 58 47" fill="#ff6688"/>
  <!-- Eyes -->
  <ellipse cx="42" cy="35" rx="7" ry="8" fill="white"/>
  <ellipse cx="58" cy="35" rx="7" ry="8" fill="white"/>
  <circle cx="43" cy="36" r="4" fill="#1a1a2e"/>
  <circle cx="59" cy="36" r="4" fill="#1a1a2e"/>
  <circle cx="44" cy="34" r="2" fill="#6644ff"/>
  <circle cx="60" cy="34" r="2" fill="#6644ff"/>
  <circle cx="45" cy="33" r="1" fill="white"/>
  <circle cx="61" cy="33" r="1" fill="white"/>
  <!-- Blush -->
  <ellipse cx="34" cy="42" rx="5" ry="3" fill="#ff8faa" opacity="0.5"/>
  <ellipse cx="66" cy="42" rx="5" ry="3" fill="#ff8faa" opacity="0.5"/>
  <!-- Bow -->
  <path d="M43 22 Q48 17 50 21 Q52 17 57 22 Q52 25 50 22 Q48 25 43 22Z" fill="#ff6b9d"/>
  <circle cx="50" cy="22" r="2" fill="#ff3d7f"/>
</svg>
